<svg width="142" height="252" fill="none" xmlns="http://www.w3.org/2000/svg"><path fill-rule="evenodd" clip-rule="evenodd" d="M69.8793 80.4405L69.8793 239.2H71.1393V80.4405L69.8793 80.4405Z" fill="#FB5631"/><path d="M76.1153 244.72C76.1153 247.899 73.5386 250.475 70.3602 250.475C67.1818 250.475 64.6052 247.899 64.6052 244.72C64.6052 241.542 67.1818 238.965 70.3602 238.965C73.5386 238.965 76.1153 241.542 76.1153 244.72Z" stroke="#FB5631" stroke-width="1.2096"/><ellipse cx="70.3604" cy="244.72" rx="3.04167" ry="3.04166" fill="#FB5631"/><g filter="url(#filter0_b_1429_33739)"><path d="M1.0001 9.67931L7.76814 2.42236H89.1152L97.4079 9.67931H132.703L140.286 17.5605V78.8722L134.027 86.5H6.03236L1 79.5437L1.0001 9.67931Z" fill="url(#paint0_linear_1429_33739)" fill-opacity="0.19"/></g><path opacity="0.7" d="M128.445 86.5806L133.931 86.5801L137.549 82.5222" stroke="url(#paint1_linear_1429_33739)" stroke-width="1.008"/><path opacity="0.7" d="M13.9176 2.67917C10.8913 2.67917 7.92647 2.67834 7.92647 2.67834L4.82678 6.33187" stroke="url(#paint2_linear_1429_33739)" stroke-width="1.008"/><path opacity="0.7" d="M2.98688 82.3528L6.48485 86.5893L11.9291 86.5894" stroke="url(#paint3_linear_1429_33739)" stroke-width="1.008"/><path opacity="0.7" d="M93.2617 6.42815C91.1217 4.28825 89.0124 2.58261 89.0124 2.58261L84.2506 2.58285" stroke="url(#paint4_linear_1429_33739)" stroke-width="1.008"/><g filter="url(#filter1_d_1429_33739)"><path d="M4.82434 13.0836L9.60915 7.78931H87.7337L95.8023 14.4498H131.309L137.26 21.2584L137.26 76.0002L131.309 82.5899H9.6092L4.82439 76.9787L4.82434 13.0836Z" fill="url(#paint5_linear_1429_33739)" fill-opacity="0.3" shape-rendering="crispEdges"/><path d="M95.4814 14.8385L95.6211 14.9538H95.8023H131.08L136.756 21.4476L136.756 75.8063L131.085 82.0859H9.84179L5.32839 76.793L5.32834 13.2776L9.83298 8.29331H87.5526L95.4814 14.8385Z" stroke="url(#paint6_linear_1429_33739)" stroke-width="1.008" shape-rendering="crispEdges"/></g><path fill-rule="evenodd" clip-rule="evenodd" d="M9.41406 75.0005H12.0278L14.6415 78.318H12.0278L9.41406 75.0005ZM13.6653 75.0005H16.2791L18.8928 78.318H16.2791L13.6653 75.0005ZM20.5283 75.0005H17.9146L20.5283 78.318H23.142L20.5283 75.0005Z" fill="url(#paint7_linear_1429_33739)"/><path fill-rule="evenodd" clip-rule="evenodd" d="M133.557 75H130.943L128.329 78.3175H130.943L133.557 75ZM129.307 75H126.694L124.08 78.3175H126.694L129.307 75ZM122.442 75H125.056L122.442 78.3175H119.829L122.442 75Z" fill="url(#paint8_linear_1429_33739)"/><defs><filter id="filter0_b_1429_33739" x="-6.056" y="-4.63364" width="153.398" height="98.1896" filterUnits="userSpaceOnUse" color-interpolation-filters="sRGB"><feFlood flood-opacity="0" result="BackgroundImageFix"/><feGaussianBlur in="BackgroundImageFix" stdDeviation="3.528"/><feComposite in2="SourceAlpha" operator="in" result="effect1_backgroundBlur_1429_33739"/><feBlend mode="normal" in="SourceGraphic" in2="effect1_backgroundBlur_1429_33739" result="shape"/></filter><filter id="filter1_d_1429_33739" x="0.792339" y="2.7493" width="140.5" height="82.8645" filterUnits="userSpaceOnUse" color-interpolation-filters="sRGB"><feFlood flood-opacity="0" result="BackgroundImageFix"/><feColorMatrix in="SourceAlpha" type="matrix" values="0 0 0 0 0 0 0 0 0 0 0 0 0 0 0 0 0 0 127 0" result="hardAlpha"/><feOffset dy="-1.008"/><feGaussianBlur stdDeviation="2.016"/><feComposite in2="hardAlpha" operator="out"/><feColorMatrix type="matrix" values="0 0 0 0 0.970833 0 0 0 0 0.5825 0 0 0 0 0.5825 0 0 0 0.1 0"/><feBlend mode="normal" in2="BackgroundImageFix" result="effect1_dropShadow_1429_33739"/><feBlend mode="normal" in="SourceGraphic" in2="effect1_dropShadow_1429_33739" result="shape"/></filter><linearGradient id="paint0_linear_1429_33739" x1="70.6428" y1="1.92031" x2="70.643" y2="93.7339" gradientUnits="userSpaceOnUse"><stop stop-color="#A03E06"/><stop offset="1" stop-color="#CA380A" stop-opacity="0.69"/></linearGradient><linearGradient id="paint1_linear_1429_33739" x1="128.445" y1="86.5806" x2="137.282" y2="82.604" gradientUnits="userSpaceOnUse"><stop stop-color="white" stop-opacity="0"/><stop offset="0.51388" stop-color="#F85757" stop-opacity="0.99"/><stop offset="1" stop-color="white" stop-opacity="0"/></linearGradient><linearGradient id="paint2_linear_1429_33739" x1="13.9176" y1="2.67834" x2="5.42292" y2="6.9183" gradientUnits="userSpaceOnUse"><stop stop-color="white" stop-opacity="0"/><stop offset="0.51388" stop-color="#F85757" stop-opacity="0.99"/><stop offset="1" stop-color="white" stop-opacity="0"/></linearGradient><linearGradient id="paint3_linear_1429_33739" x1="2.61759" y1="82.7221" x2="11.8636" y2="85.9237" gradientUnits="userSpaceOnUse"><stop stop-color="white" stop-opacity="0"/><stop offset="0.51388" stop-color="#F85757" stop-opacity="0.99"/><stop offset="1" stop-color="white" stop-opacity="0"/></linearGradient><linearGradient id="paint4_linear_1429_33739" x1="93.2617" y1="6.42817" x2="84.2571" y2="3.42056" gradientUnits="userSpaceOnUse"><stop stop-color="white" stop-opacity="0"/><stop offset="0.51388" stop-color="#F85757" stop-opacity="0.99"/><stop offset="1" stop-color="white" stop-opacity="0"/></linearGradient><linearGradient id="paint5_linear_1429_33739" x1="73.099" y1="7.70906" x2="73.5213" y2="82.2879" gradientUnits="userSpaceOnUse"><stop stop-color="#FF5B5B" stop-opacity="0.88"/><stop offset="1" stop-color="#F07054" stop-opacity="0.38"/></linearGradient><linearGradient id="paint6_linear_1429_33739" x1="2.74894" y1="7.70907" x2="161.465" y2="87.3941" gradientUnits="userSpaceOnUse"><stop stop-color="#F8531F" stop-opacity="0.82"/><stop offset="0.449862" stop-color="#ED4713" stop-opacity="0"/><stop offset="1" stop-color="#E7400C" stop-opacity="0.63"/></linearGradient><linearGradient id="paint7_linear_1429_33739" x1="10.6155" y1="76.6592" x2="22.5228" y2="76.4294" gradientUnits="userSpaceOnUse"><stop stop-color="#E7680C"/><stop offset="1" stop-color="#E75B0C" stop-opacity="0"/></linearGradient><linearGradient id="paint8_linear_1429_33739" x1="132.355" y1="76.6587" x2="120.448" y2="76.4289" gradientUnits="userSpaceOnUse"><stop stop-color="#E7680C"/><stop offset="1" stop-color="#E75B0C" stop-opacity="0"/></linearGradient></defs></svg>