<svg width="140" height="252" fill="none" xmlns="http://www.w3.org/2000/svg"><path fill-rule="evenodd" clip-rule="evenodd" d="M68.8802 80.4405L68.8802 239.2H70.1402V80.4405L68.8802 80.4405Z" fill="#18FEFE" fill-opacity="0.78"/><path d="M75.1152 244.72C75.1152 247.899 72.5386 250.475 69.3602 250.475C66.1817 250.475 63.6051 247.899 63.6051 244.72C63.6051 241.542 66.1817 238.965 69.3602 238.965C72.5386 238.965 75.1152 241.542 75.1152 244.72Z" stroke="#18FEFE" stroke-width="1.2096"/><ellipse cx="69.3604" cy="244.72" rx="3.04167" ry="3.04166" fill="#18FEFE"/><g filter="url(#filter0_b_1424_33639)"><path d="M0.00010252 9.67931L6.76814 2.42236H88.1152L96.4079 9.67931H131.703L139.286 17.5605V78.8722L133.027 86.5H5.03236L0 79.5437L0.00010252 9.67931Z" fill="url(#paint0_linear_1424_33639)" fill-opacity="0.35"/></g><path opacity="0.7" d="M127.445 86.5806L132.931 86.5801L136.549 82.5222" stroke="url(#paint1_linear_1424_33639)" stroke-width="1.008"/><path opacity="0.7" d="M12.9175 2.67917C9.89126 2.67917 6.92644 2.67834 6.92644 2.67834L3.82675 6.33187" stroke="url(#paint2_linear_1424_33639)" stroke-width="1.008"/><path opacity="0.7" d="M1.98688 82.3528L5.48485 86.5893L10.9291 86.5894" stroke="url(#paint3_linear_1424_33639)" stroke-width="1.008"/><path opacity="0.7" d="M92.2617 6.42815C90.1217 4.28825 88.0124 2.58261 88.0124 2.58261L83.2506 2.58285" stroke="url(#paint4_linear_1424_33639)" stroke-width="1.008"/><g filter="url(#filter1_b_1424_33639)"><path d="M3.82431 12.2943L8.60912 7H86.7337L94.8023 13.6605H130.309L136.26 20.469L136.26 75.2109L130.309 81.8006H8.60917L3.82436 76.1894L3.82431 12.2943Z" fill="#05B8B8" fill-opacity="0.15"/><path d="M94.4814 14.0492L94.6211 14.1645H94.8023H130.08L135.756 20.6583L135.756 75.017L130.085 81.2966H8.84176L4.32836 76.0037L4.32831 12.4883L8.83295 7.504H86.5525L94.4814 14.0492Z" stroke="url(#paint5_linear_1424_33639)" stroke-width="1.008"/></g><path fill-rule="evenodd" clip-rule="evenodd" d="M8.41406 75.0005H11.0278L13.6415 78.318H11.0278L8.41406 75.0005ZM12.6653 75.0005H15.2791L17.8928 78.318H15.2791L12.6653 75.0005ZM19.5283 75.0005H16.9146L19.5283 78.318H22.142L19.5283 75.0005Z" fill="url(#paint6_linear_1424_33639)"/><path fill-rule="evenodd" clip-rule="evenodd" d="M132.557 75H129.943L127.329 78.3175H129.943L132.557 75ZM128.307 75H125.694L123.08 78.3175H125.694L128.307 75ZM121.442 75H124.056L121.442 78.3175H118.829L121.442 75Z" fill="url(#paint7_linear_1424_33639)"/><defs><filter id="filter0_b_1424_33639" x="-7.056" y="-4.63364" width="153.398" height="98.1896" filterUnits="userSpaceOnUse" color-interpolation-filters="sRGB"><feFlood flood-opacity="0" result="BackgroundImageFix"/><feGaussianBlur in="BackgroundImageFix" stdDeviation="3.528"/><feComposite in2="SourceAlpha" operator="in" result="effect1_backgroundBlur_1424_33639"/><feBlend mode="normal" in="SourceGraphic" in2="effect1_backgroundBlur_1424_33639" result="shape"/></filter><filter id="filter1_b_1424_33639" x="-13.1757" y="-10" width="166.436" height="108.801" filterUnits="userSpaceOnUse" color-interpolation-filters="sRGB"><feFlood flood-opacity="0" result="BackgroundImageFix"/><feGaussianBlur in="BackgroundImageFix" stdDeviation="8.5"/><feComposite in2="SourceAlpha" operator="in" result="effect1_backgroundBlur_1424_33639"/><feBlend mode="normal" in="SourceGraphic" in2="effect1_backgroundBlur_1424_33639" result="shape"/></filter><linearGradient id="paint0_linear_1424_33639" x1="69.6428" y1="1.82231" x2="69.041" y2="107.743" gradientUnits="userSpaceOnUse"><stop stop-color="#458B8B"/><stop offset="1" stop-color="#396262"/></linearGradient><linearGradient id="paint1_linear_1424_33639" x1="127.445" y1="86.5806" x2="136.282" y2="82.604" gradientUnits="userSpaceOnUse"><stop stop-color="white" stop-opacity="0"/><stop offset="0.51388" stop-color="#18FEFE"/><stop offset="1" stop-color="white" stop-opacity="0"/></linearGradient><linearGradient id="paint2_linear_1424_33639" x1="12.9176" y1="2.67834" x2="4.42289" y2="6.9183" gradientUnits="userSpaceOnUse"><stop stop-color="white" stop-opacity="0"/><stop offset="0.51388" stop-color="#18FEFE"/><stop offset="1" stop-color="white" stop-opacity="0"/></linearGradient><linearGradient id="paint3_linear_1424_33639" x1="1.61759" y1="82.7221" x2="10.8636" y2="85.9237" gradientUnits="userSpaceOnUse"><stop stop-color="white" stop-opacity="0"/><stop offset="0.51388" stop-color="#18FEFE"/><stop offset="1" stop-color="white" stop-opacity="0"/></linearGradient><linearGradient id="paint4_linear_1424_33639" x1="92.2617" y1="6.42817" x2="83.2571" y2="3.42056" gradientUnits="userSpaceOnUse"><stop stop-color="white" stop-opacity="0"/><stop offset="0.51388" stop-color="#18FEFE"/><stop offset="1" stop-color="white" stop-opacity="0"/></linearGradient><linearGradient id="paint5_linear_1424_33639" x1="7.69893" y1="12.9379" x2="144.188" y2="68.4845" gradientUnits="userSpaceOnUse"><stop stop-color="#0CE7E7"/><stop offset="0.500293" stop-color="#0CE7E7" stop-opacity="0"/><stop offset="1" stop-color="#0CE7E7"/></linearGradient><linearGradient id="paint6_linear_1424_33639" x1="9.61553" y1="76.6592" x2="21.5228" y2="76.4294" gradientUnits="userSpaceOnUse"><stop stop-color="#0CE7E7"/><stop offset="1" stop-color="#0CE7E7" stop-opacity="0"/></linearGradient><linearGradient id="paint7_linear_1424_33639" x1="131.355" y1="76.6587" x2="119.448" y2="76.4289" gradientUnits="userSpaceOnUse"><stop stop-color="#0CE7E7"/><stop offset="1" stop-color="#0CE7E7" stop-opacity="0"/></linearGradient></defs></svg>