<svg width="100" height="160" fill="none" xmlns="http://www.w3.org/2000/svg"><path fill-rule="evenodd" clip-rule="evenodd" d="M49 39L49 147.5H50L50 39L49 39Z" fill="#E7E7E7"/><g filter="url(#filter0_b_1429_33923)"><path d="M0.000105143 11.5233L8.05729 2.88403H90.3145L99.5 11.7635V34.2158L92.7355 43.0562L5.9909 42.9308L0 34.6495L0.000105143 11.5233Z" fill="url(#paint0_linear_1429_33923)" fill-opacity="0.19"/></g><path opacity="0.7" d="M85.6924 42.6475L92.2233 42.647L96.7754 38.0714" stroke="url(#paint1_linear_1429_33923)"/><path opacity="0.7" d="M15.3762 3.1897C11.7735 3.1897 8.24393 3.18872 8.24393 3.18872L4.55383 7.53816" stroke="url(#paint2_linear_1429_33923)"/><path opacity="0.7" d="M2.36581 38.0909L6.53007 43.1343L13.0113 43.1344" stroke="url(#paint3_linear_1429_33923)"/><path opacity="0.7" d="M94.7268 7.65256C92.1793 5.10506 89.6682 3.07454 89.6682 3.07454L83.9994 3.07483" stroke="url(#paint4_linear_1429_33923)"/><g filter="url(#filter1_b_1429_33923)"><path d="M4.55389 13.8899L10.2501 7.58716L86.8938 7.58716L94.4992 13.8899V32.2115L89.4143 39.0228L10.2501 38.8914L4.55391 32.2115L4.55389 13.8899Z" fill="#747575" fill-opacity="0.15"/><path d="M10.483 38.3878L5.05791 32.0258L5.05789 14.0839L10.4739 8.09116H86.7121L93.9952 14.1268V32.0441L89.1619 38.5184L10.483 38.3878Z" stroke="url(#paint5_linear_1429_33923)" stroke-width="1.008"/></g><circle cx="18.0014" cy="23.0004" r="5.03653" fill="url(#paint6_linear_1429_33923)"/><circle cx="18.0014" cy="23.0004" r="4.78653" stroke="white" stroke-opacity="0.5" stroke-width="0.5"/><path d="M55.1149 153.36C55.1149 156.538 52.5383 159.115 49.3598 159.115C46.1814 159.115 43.6048 156.538 43.6048 153.36C43.6048 150.181 46.1814 147.605 49.3598 147.605C52.5383 147.605 55.1149 150.181 55.1149 153.36Z" stroke="#E7E7E7" stroke-width="1.2096"/><ellipse cx="49.36" cy="153.36" rx="3.04167" ry="3.04166" fill="#E7E7E7"/><defs><filter id="filter0_b_1429_33923" x="-7" y="-4.11597" width="113.5" height="54.1721" filterUnits="userSpaceOnUse" color-interpolation-filters="sRGB"><feFlood flood-opacity="0" result="BackgroundImageFix"/><feGaussianBlur in="BackgroundImageFix" stdDeviation="3.5"/><feComposite in2="SourceAlpha" operator="in" result="effect1_backgroundBlur_1429_33923"/><feBlend mode="normal" in="SourceGraphic" in2="effect1_backgroundBlur_1429_33923" result="shape"/></filter><filter id="filter1_b_1429_33923" x="-12.4461" y="-9.41284" width="123.945" height="65.4357" filterUnits="userSpaceOnUse" color-interpolation-filters="sRGB"><feFlood flood-opacity="0" result="BackgroundImageFix"/><feGaussianBlur in="BackgroundImageFix" stdDeviation="8.5"/><feComposite in2="SourceAlpha" operator="in" result="effect1_backgroundBlur_1429_33923"/><feBlend mode="normal" in="SourceGraphic" in2="effect1_backgroundBlur_1429_33923" result="shape"/></filter><linearGradient id="paint0_linear_1429_33923" x1="109.793" y1="2.34497" x2="109.794" y2="87.9479" gradientUnits="userSpaceOnUse"><stop stop-color="#828282"/><stop offset="1" stop-color="#636363" stop-opacity="0.35"/></linearGradient><linearGradient id="paint1_linear_1429_33923" x1="85.6927" y1="42.6486" x2="96.1595" y2="37.5646" gradientUnits="userSpaceOnUse"><stop stop-color="white" stop-opacity="0"/><stop offset="0.51388" stop-color="white" stop-opacity="0.99"/><stop offset="1" stop-color="white" stop-opacity="0"/></linearGradient><linearGradient id="paint2_linear_1429_33923" x1="15.376" y1="3.1876" x2="5.26235" y2="8.23448" gradientUnits="userSpaceOnUse"><stop stop-color="white" stop-opacity="0"/><stop offset="0.51388" stop-color="white" stop-opacity="0.99"/><stop offset="1" stop-color="white" stop-opacity="0"/></linearGradient><linearGradient id="paint3_linear_1429_33923" x1="1.92554" y1="38.5315" x2="12.9328" y2="42.344" gradientUnits="userSpaceOnUse"><stop stop-color="white" stop-opacity="0"/><stop offset="0.51388" stop-color="white" stop-opacity="0.99"/><stop offset="1" stop-color="white" stop-opacity="0"/></linearGradient><linearGradient id="paint4_linear_1429_33923" x1="94.7274" y1="7.65161" x2="84.0075" y2="4.07001" gradientUnits="userSpaceOnUse"><stop stop-color="white" stop-opacity="0"/><stop offset="0.51388" stop-color="white" stop-opacity="0.99"/><stop offset="1" stop-color="white" stop-opacity="0"/></linearGradient><linearGradient id="paint5_linear_1429_33923" x1="7.18538" y1="10.0826" x2="82.6116" y2="59.6887" gradientUnits="userSpaceOnUse"><stop stop-color="#F8F8F8"/><stop offset="0.500293" stop-color="#A2A2A2" stop-opacity="0"/><stop offset="1" stop-color="white"/></linearGradient><linearGradient id="paint6_linear_1429_33923" x1="18.0014" y1="17.9639" x2="18.0014" y2="28.0369" gradientUnits="userSpaceOnUse"><stop stop-color="#E4E4E3"/><stop offset="1" stop-color="#6F6B6B"/></linearGradient></defs></svg>