<svg width="100" height="160" fill="none" xmlns="http://www.w3.org/2000/svg"><path fill-rule="evenodd" clip-rule="evenodd" d="M49 39L49 147.5H50L50 39L49 39Z" fill="#18FEFE" fill-opacity="0.78"/><g filter="url(#filter0_b_1429_33922)"><path d="M0.000105143 11.5233L8.05729 2.88403H90.3145L99.5 11.7635V34.2158L92.7355 43.0562L5.9909 42.9308L0 34.6495L0.000105143 11.5233Z" fill="url(#paint0_linear_1429_33922)" fill-opacity="0.35"/></g><path opacity="0.7" d="M85.6924 42.6475L92.2233 42.647L96.7754 38.0714" stroke="url(#paint1_linear_1429_33922)" stroke-width="1.008"/><path opacity="0.7" d="M15.3762 3.1897C11.7735 3.1897 8.24393 3.18872 8.24393 3.18872L4.55383 7.53816" stroke="url(#paint2_linear_1429_33922)" stroke-width="1.008"/><path opacity="0.7" d="M2.36581 38.0909L6.53007 43.1343L13.0113 43.1344" stroke="url(#paint3_linear_1429_33922)" stroke-width="1.008"/><path opacity="0.7" d="M94.7268 7.65256C92.1793 5.10506 89.6682 3.07454 89.6682 3.07454L83.9994 3.07483" stroke="url(#paint4_linear_1429_33922)" stroke-width="1.008"/><g filter="url(#filter1_b_1429_33922)"><path d="M4.55389 13.8899L10.2501 7.58716L86.8938 7.58716L94.4992 13.8899V32.2115L89.4143 39.0228L10.2501 38.8914L4.55391 32.2115L4.55389 13.8899Z" fill="#05B8B8" fill-opacity="0.15"/><path d="M10.483 38.3878L5.05791 32.0258L5.05789 14.0839L10.4739 8.09116H86.7121L93.9952 14.1268V32.0441L89.1619 38.5184L10.483 38.3878Z" stroke="url(#paint5_linear_1429_33922)" stroke-width="1.008"/></g><circle cx="18.0014" cy="23.0004" r="5.03653" fill="url(#paint6_linear_1429_33922)"/><circle cx="18.0014" cy="23.0004" r="4.78653" stroke="white" stroke-opacity="0.5" stroke-width="0.5"/><path d="M55.1149 153.36C55.1149 156.538 52.5383 159.115 49.3598 159.115C46.1814 159.115 43.6048 156.538 43.6048 153.36C43.6048 150.181 46.1814 147.605 49.3598 147.605C52.5383 147.605 55.1149 150.181 55.1149 153.36Z" stroke="#18FEFE" stroke-width="1.2096"/><ellipse cx="49.36" cy="153.36" rx="3.04167" ry="3.04166" fill="#18FEFE"/><defs><filter id="filter0_b_1429_33922" x="-7.056" y="-4.17197" width="113.612" height="54.2841" filterUnits="userSpaceOnUse" color-interpolation-filters="sRGB"><feFlood flood-opacity="0" result="BackgroundImageFix"/><feGaussianBlur in="BackgroundImageFix" stdDeviation="3.528"/><feComposite in2="SourceAlpha" operator="in" result="effect1_backgroundBlur_1429_33922"/><feBlend mode="normal" in="SourceGraphic" in2="effect1_backgroundBlur_1429_33922" result="shape"/></filter><filter id="filter1_b_1429_33922" x="-12.4461" y="-9.41284" width="123.945" height="65.4357" filterUnits="userSpaceOnUse" color-interpolation-filters="sRGB"><feFlood flood-opacity="0" result="BackgroundImageFix"/><feGaussianBlur in="BackgroundImageFix" stdDeviation="8.5"/><feComposite in2="SourceAlpha" operator="in" result="effect1_backgroundBlur_1429_33922"/><feBlend mode="normal" in="SourceGraphic" in2="effect1_backgroundBlur_1429_33922" result="shape"/></filter><linearGradient id="paint0_linear_1429_33922" x1="37.5675" y1="2.59733" x2="37.3128" y2="53.2062" gradientUnits="userSpaceOnUse"><stop stop-color="#458B8B"/><stop offset="1" stop-color="#396262"/></linearGradient><linearGradient id="paint1_linear_1429_33922" x1="85.6924" y1="42.6475" x2="96.1584" y2="37.5627" gradientUnits="userSpaceOnUse"><stop stop-color="white" stop-opacity="0"/><stop offset="0.51388" stop-color="#18FEFE"/><stop offset="1" stop-color="white" stop-opacity="0"/></linearGradient><linearGradient id="paint2_linear_1429_33922" x1="15.3762" y1="3.18872" x2="5.26351" y2="8.23628" gradientUnits="userSpaceOnUse"><stop stop-color="white" stop-opacity="0"/><stop offset="0.51388" stop-color="#18FEFE"/><stop offset="1" stop-color="white" stop-opacity="0"/></linearGradient><linearGradient id="paint3_linear_1429_33922" x1="1.92619" y1="38.5304" x2="12.9333" y2="42.3418" gradientUnits="userSpaceOnUse"><stop stop-color="white" stop-opacity="0"/><stop offset="0.51388" stop-color="#18FEFE"/><stop offset="1" stop-color="white" stop-opacity="0"/></linearGradient><linearGradient id="paint4_linear_1429_33922" x1="94.7268" y1="7.65258" x2="84.007" y2="4.07211" gradientUnits="userSpaceOnUse"><stop stop-color="white" stop-opacity="0"/><stop offset="0.51388" stop-color="#18FEFE"/><stop offset="1" stop-color="white" stop-opacity="0"/></linearGradient><linearGradient id="paint5_linear_1429_33922" x1="6.50231" y1="10.0826" x2="71.171" y2="41.5737" gradientUnits="userSpaceOnUse"><stop stop-color="#0CE7E7"/><stop offset="0.500293" stop-color="#0CE7E7" stop-opacity="0"/><stop offset="1" stop-color="#0CE7E7"/></linearGradient><linearGradient id="paint6_linear_1429_33922" x1="18.0014" y1="17.9639" x2="20.1537" y2="28.8255" gradientUnits="userSpaceOnUse"><stop stop-color="#36FFB7"/><stop offset="1" stop-color="#18A270"/></linearGradient></defs></svg>