<svg width="140" height="252" xmlns="http://www.w3.org/2000/svg" fill="none"><defs><filter color-interpolation-filters="sRGB" filterUnits="userSpaceOnUse" height="98.1896" width="153.398" y="-4.63364" x="-7.056" id="filter0_b_1424_33639"><feGaussianBlur stdDeviation="3.528" in="BackgroundImageFix"/></filter><filter color-interpolation-filters="sRGB" filterUnits="userSpaceOnUse" height="108.801" width="166.436" y="-10" x="-13.1757" id="filter1_b_1424_33639"><feGaussianBlur stdDeviation="8.5" in="BackgroundImageFix"/></filter><linearGradient y2="1.25266" x2="0.49568" y1="-0.00714" x1="0.5" id="paint0_linear_1424_33639"><stop stop-color="#458B8B"/><stop stop-color="#396262" offset="1"/></linearGradient><linearGradient y2="0.02016" x2="0.97067" y1="1" x1="0" id="paint1_linear_1424_33639"><stop stop-opacity="0" stop-color="white"/><stop stop-color="#18FEFE" offset="0.51388"/><stop stop-opacity="0" stop-color="white" offset="1"/></linearGradient><linearGradient y2="1.16051" x2="0.06558" y1="0" x1="1.00001" id="paint2_linear_1424_33639"><stop stop-opacity="0" stop-color="white"/><stop stop-color="#18FEFE" offset="0.51388"/><stop stop-opacity="0" stop-color="white" offset="1"/></linearGradient><linearGradient y2="0.84287" x2="0.99268" y1="0.08717" x1="-0.0413" id="paint3_linear_1424_33639"><stop stop-opacity="0" stop-color="white"/><stop stop-color="#18FEFE" offset="0.51388"/><stop stop-opacity="0" stop-color="white" offset="1"/></linearGradient><linearGradient y2="0.2179" x2="0.00072" y1="1.00001" x1="1" id="paint4_linear_1424_33639"><stop stop-opacity="0" stop-color="white"/><stop stop-color="#18FEFE" offset="0.51388"/><stop stop-opacity="0" stop-color="white" offset="1"/></linearGradient><linearGradient y2="0.82638" x2="1.06416" y1="0.07364" x1="0.02565" id="paint5_linear_1424_33639"><stop stop-color="#0CE7E7"/><stop stop-opacity="0" stop-color="#0CE7E7" offset="0.50029"/><stop stop-color="#0CE7E7" offset="1"/></linearGradient><linearGradient y2="0.43072" x2="0.95489" y1="0.49998" x1="0.08752" id="paint6_linear_1424_33639"><stop stop-color="#0CE7E7"/><stop stop-opacity="0" stop-color="#0CE7E7" offset="1"/></linearGradient><linearGradient y2="0.43072" x2="0.04509" y1="0.49999" x1="0.91244" id="paint7_linear_1424_33639"><stop stop-color="#0CE7E7"/><stop stop-opacity="0" stop-color="#0CE7E7" offset="1"/></linearGradient></defs><g><title>Layer 1</title><g id="svg_4" filter="url(#filter0_b_1424_33639)"><path id="svg_5" fill-opacity="0.35" fill="url(#paint0_linear_1424_33639)" d="m0.0001,9.67931l6.76804,-7.25695l81.34706,0l8.2927,7.25695l35.2951,0l7.583,7.88119l0,61.3117l-6.259,7.6278l-127.99464,0l-5.03236,-6.9563l0.0001,-69.86439z"/></g><path id="svg_6" stroke-width="1.008" stroke="url(#paint1_linear_1424_33639)" d="m127.445,86.5806l5.486,-0.0005l3.618,-4.0579" opacity="0.7"/><path id="svg_7" stroke-width="1.008" stroke="url(#paint2_linear_1424_33639)" d="m12.9175,2.67917c-3.02624,0 -5.99106,-0.00083 -5.99106,-0.00083l-3.09969,3.65353" opacity="0.7"/><path id="svg_8" stroke-width="1.008" stroke="url(#paint3_linear_1424_33639)" d="m1.98688,82.3528l3.49797,4.2365l5.44425,0.0001" opacity="0.7"/><path id="svg_9" stroke-width="1.008" stroke="url(#paint4_linear_1424_33639)" d="m92.2617,6.42815c-2.14,-2.1399 -4.2493,-3.84554 -4.2493,-3.84554l-4.7618,0.00024" opacity="0.7"/><g id="svg_10" filter="url(#filter1_b_1424_33639)"><path id="svg_11" fill-opacity="0.15" fill="#05B8B8" d="m3.82431,12.2943l4.78481,-5.2943l78.12458,0l8.0686,6.6605l35.5067,0l5.951,6.8085l0,54.7419l-5.951,6.5897l-121.69983,0l-4.78481,-5.6112l-0.00005,-63.8951z"/><path id="svg_12" stroke-width="1.008" stroke="url(#paint5_linear_1424_33639)" d="m94.4814,14.0492l0.1397,0.1153l0.1812,0l35.2777,0l5.676,6.4938l0,54.3587l-5.671,6.2796l-121.24324,0l-4.5134,-5.2929l-0.00005,-63.5154l4.50464,-4.9843l77.71955,0l7.9289,6.5452z"/></g><path id="svg_13" fill="url(#paint6_linear_1424_33639)" d="m8.41406,75.0005l2.61374,0l2.6137,3.3175l-2.6137,0l-2.61374,-3.3175zm4.25124,0l2.6138,0l2.6137,3.3175l-2.6137,0l-2.6138,-3.3175zm6.863,0l-2.6137,0l2.6137,3.3175l2.6137,0l-2.6137,-3.3175z" clip-rule="evenodd" fill-rule="evenodd"/><path id="svg_14" fill="url(#paint7_linear_1424_33639)" d="m132.557,75l-2.614,0l-2.614,3.3175l2.614,0l2.614,-3.3175zm-4.25,0l-2.613,0l-2.614,3.3175l2.614,0l2.613,-3.3175zm-6.865,0l2.614,0l-2.614,3.3175l-2.613,0l2.613,-3.3175z" clip-rule="evenodd" fill-rule="evenodd"/></g></svg>